<?xml version="1.0" encoding="iso-8859-1"?>
<!-- Generator: Adobe Illustrator 19.0.0, SVG Export Plug-In . SVG Version: 6.00 Build 0)  -->
<svg version="1.1" id="Layer_1" xmlns="http://www.w3.org/2000/svg" xmlns:xlink="http://www.w3.org/1999/xlink" x="0px" y="0px"
	 viewBox="0 0 512 512" style="enable-background:new 0 0 512 512;" xml:space="preserve">
<path style="fill:#AA5446;" d="M385.833,512H126.168c-31.821,0-57.709-25.888-57.709-57.709V130.663
	c0-40.059,32.59-72.65,72.65-72.65h229.783c40.059,0,72.65,32.59,72.65,72.65v323.628C443.543,486.112,417.653,512,385.833,512z"/>
<path style="fill:#DD6B5B;" d="M255.845,58.014H141.108c-40.059,0-72.65,32.59-72.65,72.65v323.628
	c0,31.821,25.888,57.709,57.709,57.709h129.677L255.845,58.014L255.845,58.014z"/>
<path style="fill:#96A8B0;" d="M376.514,458.579H135.487c-9.323,0-16.882-7.558-16.882-16.882V133.944
	c0-9.323,7.558-16.882,16.882-16.882h241.026c9.323,0,16.882,7.558,16.882,16.882v307.752
	C393.395,451.021,385.837,458.579,376.514,458.579z"/>
<path style="fill:#B9CED9;" d="M255.845,458.579H135.487c-9.323,0-16.882-7.558-16.882-16.882V133.944
	c0-9.323,7.558-16.882,16.882-16.882h120.358V458.579z"/>
<path style="fill:#364A57;" d="M328.029,226.944H182.847c-9.323,0-16.882-7.374-16.882-16.697c0-9.323,7.558-16.696,16.882-16.696
	H328.03c9.323,0,16.882,7.374,16.882,16.696C344.912,219.57,337.353,226.944,328.029,226.944z"/>
<path style="fill:#476172;" d="M256,226.944h-73.154c-9.323,0-16.882-7.374-16.882-16.697c0-9.323,7.558-16.696,16.882-16.696H256
	V226.944z"/>
<path style="fill:#364A57;" d="M328.029,280.125H182.847c-9.323,0-16.882-7.374-16.882-16.696c0-9.323,7.558-16.697,16.882-16.697
	H328.03c9.323,0,16.882,7.374,16.882,16.697C344.912,272.752,337.353,280.125,328.029,280.125z"/>
<path style="fill:#476172;" d="M256,280.125h-73.154c-9.323,0-16.882-7.374-16.882-16.696c0-9.323,7.558-16.697,16.882-16.697H256
	V280.125z"/>
<path style="fill:#364A57;" d="M328.029,333.307H182.847c-9.323,0-16.882-7.374-16.882-16.697s7.558-16.697,16.882-16.697H328.03
	c9.323,0,16.882,7.374,16.882,16.697S337.353,333.307,328.029,333.307z"/>
<path style="fill:#476172;" d="M256,333.307h-73.154c-9.323,0-16.882-7.374-16.882-16.697s7.558-16.697,16.882-16.697H256V333.307z"
	/>
<path style="fill:#364A57;" d="M290.925,386.488h-108.08c-9.323,0-16.882-7.374-16.882-16.697c0-9.323,7.558-16.696,16.882-16.696
	h108.08c9.323,0,16.882,7.374,16.882,16.696C307.807,379.116,300.249,386.488,290.925,386.488z"/>
<path style="fill:#476172;" d="M256,386.488h-73.154c-9.323,0-16.882-7.374-16.882-16.697c0-9.323,7.558-16.696,16.882-16.696H256
	V386.488z"/>
<g>
	<path style="fill:#364A57;" d="M281.725,35.983c0.949-2.251,1.472-5.709,1.472-8.798C283.197,12.165,271.021,0,256.001,0
		c-15.021,0-27.197,12.159-27.197,27.178c0,3.089,0.522,6.554,1.472,8.805h-11.815c-7.86,0-14.232,6.372-14.232,14.232v27.411
		h103.542V50.213c0-7.86-6.372-14.232-14.232-14.232h-11.815V35.983z"/>
	<path style="fill:#364A57;" d="M256,0c-15.019,0-27.195,12.159-27.195,27.178c0,3.089,0.522,6.554,1.472,8.805h-11.815
		c-7.86,0-14.232,6.372-14.232,14.232v27.411H256L256,0L256,0z"/>
</g>
<g>
</g>
<g>
</g>
<g>
</g>
<g>
</g>
<g>
</g>
<g>
</g>
<g>
</g>
<g>
</g>
<g>
</g>
<g>
</g>
<g>
</g>
<g>
</g>
<g>
</g>
<g>
</g>
<g>
</g>
</svg>
