<?xml version="1.0" encoding="iso-8859-1"?>
<!-- Generator: Adobe Illustrator 19.0.0, SVG Export Plug-In . SVG Version: 6.00 Build 0)  -->
<svg version="1.1" id="Capa_1" xmlns="http://www.w3.org/2000/svg" xmlns:xlink="http://www.w3.org/1999/xlink" x="0px" y="0px"
	 viewBox="0 0 512 512" style="enable-background:new 0 0 512 512;" xml:space="preserve">
<g>
	<g>
		<g>
			<path d="M256,0C114.615,0,0,114.615,0,256s114.615,256,256,256s256-114.615,256-256S397.385,0,256,0z M256,480
				C132.288,480,32,379.712,32,256S132.288,32,256,32s224,100.288,224,224S379.712,480,256,480z"/>
			<polygon points="139.36,251.36 176,214.56 212.64,251.36 235.36,228.64 198.56,192 235.36,155.36 212.64,132.64 176,169.44 
				139.36,132.64 116.64,155.36 153.44,192 116.64,228.64 			"/>
			<polygon points="372.64,132.64 336,169.44 299.36,132.64 276.64,155.36 313.44,192 276.64,228.64 299.36,251.36 336,214.56 
				372.64,251.36 395.36,228.64 358.56,192 395.36,155.36 			"/>
			<path d="M256,272c-70.692,0-128,57.308-128,128h32c0-53.019,42.981-96,96-96s96,42.981,96,96h32C384,329.308,326.692,272,256,272
				z"/>
		</g>
	</g>
</g>
<g>
</g>
<g>
</g>
<g>
</g>
<g>
</g>
<g>
</g>
<g>
</g>
<g>
</g>
<g>
</g>
<g>
</g>
<g>
</g>
<g>
</g>
<g>
</g>
<g>
</g>
<g>
</g>
<g>
</g>
</svg>
