<svg id="Layer_1_1_" enable-background="new 0 0 64 64" height="512" viewBox="0 0 64 64" width="512" xmlns="http://www.w3.org/2000/svg"><circle cx="32" cy="32" fill="#ffb554" r="28"/><path d="m32 38-8 23h-9l8-23v-13l-11 11-5-5 11.65685-11.65685c1.50029-1.50029 3.53513-2.34315 5.65686-2.34315h15.37258c2.12173 0 4.15656.84286 5.65686 2.34315l11.65685 11.65685-5 5-11-11v13l9 23h-9z" fill="#5dc4dd"/><circle cx="32" cy="10" fill="#5dc4dd" r="7"/><path d="m32.85788 24.67432-.85786.81396-.85787-.81396c-.94761-.89912-2.4839-.89907-3.43146 0s-.94761 2.35674 0 3.25586l4.28932 4.06982 4.28932-4.06982c.94756-.89907.94756-2.35679 0-3.25586-.94761-.89912-2.4839-.89907-3.43145 0z" fill="#ea5b58"/><g fill="#1e191a"><path d="m26.72626 16h-2.41278c-2.4043 0-4.66406.93604-6.36328 2.63623l-11.65723 11.65674c-.1875.1875-.29297.44189-.29297.70703s.10547.51953.29297.70703l5 5c.39062.39062 1.02344.39062 1.41406 0l9.29297-9.29297v10.41699l-7.94434 22.84033c-.10645.30566-.05859.64404.12891.9082.18848.26368.49219.42042.81543.42042h9c.42578 0 .80469-.26953.94434-.67139l7.11133-20.44336 8.0127 20.479c.15038.38331.51952.63575.93163.63575h9c.33008 0 .63965-.16309.82617-.43604.18652-.27344.22559-.62061.10547-.92822l-8.93164-22.82422v-10.39746l9.29297 9.29297c.39062.39062 1.02344.39062 1.41406 0l5-5c.1875-.1875.29297-.44189.29297-.70703s-.10547-.51953-.29297-.70703l-11.65723-11.65674c-1.69921-1.70019-3.95898-2.63623-6.36328-2.63623h-2.41278c1.66712-1.46722 2.72626-3.60992 2.72626-6 0-4.41113-3.58887-8-8-8s-8 3.58887-8 8c0 2.39008 1.05914 4.53278 2.72626 6zm12.96026 2c1.87012 0 3.62695.72803 4.94922 2.05029l10.9502 10.94971-3.58594 3.58594-10.29297-10.29297c-.28613-.28613-.71582-.37061-1.08984-.2168-.37403.15479-.61719.51953-.61719.92383v13c0 .12451.02344.24805.06836.36426l8.4668 21.63574h-6.85254l-8.75098-22.36426c-.15039-.38379-.52051-.63574-.93164-.63574-.00586 0-.0127 0-.01953 0-.41797.0083-.78711.27588-.9248.67139l-7.76661 22.32861h-6.88281l7.53809-21.67139c.03711-.10595.05566-.21679.05566-.32861v-13c0-.4043-.24316-.76904-.61719-.92383-.37402-.1543-.80371-.06934-1.08984.2168l-10.29297 10.29297-3.58594-3.58594 10.9502-10.94971c1.32226-1.32226 3.0791-2.05029 4.94922-2.05029zm-7.68652-14c3.30859 0 6 2.69141 6 6s-2.69141 6-6 6-6-2.69141-6-6 2.69141-6 6-6z"/><path d="m31.31152 32.72559c.19336.1831.44043.27441.68848.27441s.49512-.09131.68848-.27441l4.28809-4.06982c.66015-.6255 1.02343-1.46143 1.02343-2.35352s-.36328-1.72803-1.02246-2.35352c-1.3252-1.25586-3.48242-1.25781-4.80762 0-.00098 0-.00098 0-.00098.00049l-.16894.16016-.16992-.16064c-1.32324-1.25684-3.48145-1.25781-4.80664 0-.66016.62548-1.02344 1.46142-1.02344 2.35351s.36328 1.72803 1.02246 2.35352zm-2.91211-7.32569c.2832-.26904.65527-.40332 1.02734-.40332s.74414.13428 1.02734.40283l.85742.81396c.38672.36621.99023.36621 1.37695 0l.85742-.81396c.56641-.53711 1.4873-.53662 2.05566.00049.25686.24414.39846.56446.39846.90235s-.1416.6582-.39941.90234l-3.60059 3.41699-3.60156-3.41699c-.25684-.24414-.39844-.56445-.39844-.90234s.1416-.65821.39941-.90235z"/><path d="m60.62305 36.68506-1.97461-.32129c-.10352.63721-.23145 1.27832-.37988 1.90576l1.94531.46191c.16015-.67382.29785-1.3623.40918-2.04638z"/><path d="m60.99512 32.52734-2-.03418c-.01074.64551-.0459 1.29834-.10352 1.94043l1.99219.17871c.06152-.68994.09961-1.39111.11133-2.08496z"/><path d="m58.96094 30.54688 1.99805-.10645c-.03809-.69727-.09961-1.39697-.18555-2.08008l-1.98438.24902c.08008.63575.1377 1.2876.17188 1.93751z"/><path d="m58.1123 44.62256-1.79883-.87207c-.28027.57715-.58691 1.15527-.91113 1.71826l1.73242.99902c.34864-.60449.67774-1.22509.97754-1.84521z"/><path d="m56.02637 48.2373-1.65625-1.12109c-.35938.53125-.74512 1.05908-1.14746 1.56934l1.57031 1.23828c.43262-.54834.84765-1.11572 1.2334-1.68653z"/><path d="m50.60352 51.56006 1.37891 1.44922c.50098-.47656.99219-.97852 1.46094-1.49219l-1.47852-1.34766c-.43555.47852-.89356.94629-1.36133 1.39063z"/><path d="m58.47852 26.68945 1.96094-.39062c-.13574-.68457-.29883-1.36865-.48242-2.03369l-1.92773.53418c.17089.61767.32225 1.25341.44921 1.89013z"/><path d="m46.11523 6.67041c-.60742-.33936-1.2334-.65967-1.86035-.95215l-.8457 1.8125c.58301.27197 1.16602.56982 1.73145.88574z"/><path d="m49.60449 8.96191c-.54688-.41895-1.12012-.82568-1.70312-1.20898l-1.09766 1.67187c.54297.35645 1.07617.73535 1.58594 1.125z"/><path d="m53.81445 16.09375 1.61523-1.18066c-.41113-.56152-.8457-1.11328-1.29297-1.64062l-1.52539 1.29297c.41602.4912.8213 1.00536 1.20313 1.52831z"/><path d="m52.72949 11.72754c-.48926-.5-.99902-.98438-1.51367-1.43945l-1.32422 1.49902c.47852.42285.95312.87402 1.41016 1.33984z"/><path d="m55.87695 19.38818 1.76758-.93652c-.32617-.61475-.67676-1.22363-1.04395-1.80957l-1.69531 1.06152c.3418.54541.66895 1.11231.97168 1.68457z"/><path d="m57.44238 22.94531 1.88477-.67188c-.2334-.65332-.49316-1.30664-.77344-1.94189l-1.83008.80762c.26075.59033.50293 1.19824.71875 1.80615z"/><path d="m59.65527 40.74512-1.90625-.60254c-.19629.61914-.41504 1.23486-.65234 1.8291l1.85742.74121c.25488-.64014.49121-1.30225.70117-1.96777z"/><path d="m13.38086 51.54639c-.47461-.45312-.93164-.92139-1.35938-1.39209l-1.48047 1.34473c.45996.50586.9502 1.0083 1.45898 1.49365z"/><path d="m6.89355 41.94824c-.23828-.60107-.45801-1.21777-.65137-1.83301l-1.9082.60156c.20898.66064.44434 1.32324.7002 1.96875z"/><path d="m17.22559 9.40674-1.0957-1.67383c-.57617.37695-1.14941.7832-1.70508 1.20605l1.21289 1.59082c.5166-.39453 1.05078-.77246 1.58789-1.12304z"/><path d="m10.7627 48.66748c-.39648-.50342-.78223-1.03125-1.14648-1.56982l-1.65625 1.12012c.39062.57861.80566 1.14648 1.23242 1.68799z"/><path d="m14.13379 11.76416-1.32422-1.49902c-.52344.4624-1.03223.9458-1.51465 1.4375l1.42773 1.40039c.44923-.45752.92383-.90821 1.41114-1.33887z"/><path d="m8.58594 45.44824c-.32031-.55664-.62598-1.13525-.90918-1.72021l-1.80078.87207c.30469.62744.63281 1.24854.97754 1.84619z"/><path d="m20.62207 7.5166-.84375-1.81348c-.63086.29297-1.25684.6123-1.86133.94922l.97266 1.74707c.5625-.31298 1.14551-.60986 1.73242-.88281z"/><path d="m5.21484 28.57568-1.98438-.25195c-.08594.68262-.14941 1.38232-.1875 2.07959l1.99609.10938c.03615-.64991.09474-1.30176.17579-1.93702z"/><path d="m5.98047 24.76514-1.92773-.53418c-.18359.66309-.34668 1.34619-.48535 2.03076l1.96094.39551c.1289-.63819.28026-1.27442.45214-1.89209z"/><path d="m5.10547 34.40088c-.05664-.63867-.09082-1.29248-.10156-1.94336l-2 .03418c.0127.69824.04883 1.39941.10938 2.08496z"/><path d="m9.11328 17.67432-1.69531-1.0625c-.36816.58838-.7207 1.19629-1.04492 1.80762l1.76562.93848c.30274-.56886.63086-1.13526.97461-1.6836z"/><path d="m11.41016 14.54004-1.52344-1.2959c-.4502.52881-.88574 1.08057-1.29492 1.63965l1.61328 1.18164c.38086-.52002.78613-1.0332 1.20508-1.52539z"/><path d="m7.28906 21.10645-1.83008-.80713c-.2832.64307-.54395 1.2959-.77344 1.94043l1.88281.67188c.21388-.59864.45606-1.20606.72071-1.80518z"/><path d="m3.37109 36.6499c.10938.68213.24707 1.37207.4082 2.05078l1.94531-.46094c-.14941-.63184-.27734-1.27344-.37891-1.90723z"/><path d="m30.95117 60.98145.07422-1.99902c-.64355-.02344-1.29688-.0708-1.94043-.14111l-.2168 1.98828c.69141.07519 1.39258.12645 2.08301.15185z"/><path d="m33.04199 60.98096c.69629-.02539 1.39746-.07617 2.08496-.15137l-.21875-1.98828c-.63867.07031-1.29102.11719-1.93848.14062z"/></g></svg>